<svg width="20" height="20" viewBox="0 0 20 20" fill="none" xmlns="http://www.w3.org/2000/svg">
<g clip-path="url(#clip0_236_2693)">
<path d="M10 20C15.5228 20 20 15.5228 20 10C20 4.47715 15.5228 0 10 0C4.47715 0 0 4.47715 0 10C0 15.5228 4.47715 20 10 20Z" fill="#F0F0F0"/>
<path d="M19.378 13.4782C19.78 12.3949 20 11.2232 20 10C20 8.7768 19.78 7.60508 19.378 6.52176H0.621992C0.220039 7.60508 0 8.7768 0 10C0 11.2232 0.220039 12.3949 0.621992 13.4782L10 14.3478L19.378 13.4782Z" fill="#0052B4"/>
<path d="M9.99996 20C14.2996 20 17.965 17.2862 19.378 13.4782H0.621948C2.03488 17.2862 5.70031 20 9.99996 20Z" fill="#D80027"/>
</g>
<defs>
<clipPath id="clip0_236_2693">
<rect width="20" height="20" fill="white"/>
</clipPath>
</defs>
</svg>
