<svg width="24" height="24" viewBox="0 0 24 24" fill="none" xmlns="http://www.w3.org/2000/svg">
<path d="M12 16.5C14.4853 16.5 16.5 14.4853 16.5 12C16.5 9.51472 14.4853 7.5 12 7.5C9.51472 7.5 7.5 9.51472 7.5 12C7.5 14.4853 9.51472 16.5 12 16.5Z" stroke="#2C2D35" stroke-width="2" stroke-linecap="round" stroke-linejoin="round"/>
<path d="M17.222 6.10327C17.4595 6.32202 17.6845 6.54702 17.897 6.77827L20.4564 7.1439C20.8734 7.86812 21.1948 8.64332 21.4126 9.45015L19.8564 11.522C19.8564 11.522 19.8845 12.1595 19.8564 12.4783L21.4126 14.5501C21.1958 15.3573 20.8744 16.1326 20.4564 16.8564L17.897 17.222C17.897 17.222 17.4564 17.6814 17.222 17.897L16.8564 20.4564C16.1322 20.8734 15.357 21.1948 14.5501 21.4126L12.4783 19.8564C12.1601 19.8845 11.8402 19.8845 11.522 19.8564L9.45015 21.4126C8.64298 21.1958 7.86765 20.8744 7.1439 20.4564L6.77827 17.897C6.54702 17.6783 6.32202 17.4533 6.10327 17.222L3.5439 16.8564C3.12688 16.1322 2.80545 15.357 2.58765 14.5501L4.1439 12.4783C4.1439 12.4783 4.11577 11.8408 4.1439 11.522L2.58765 9.45015C2.80444 8.64298 3.12592 7.86765 3.5439 7.1439L6.10327 6.77827C6.32202 6.54702 6.54702 6.32202 6.77827 6.10327L7.1439 3.5439C7.86812 3.12688 8.64332 2.80545 9.45015 2.58765L11.522 4.1439C11.8402 4.11577 12.1601 4.11577 12.4783 4.1439L14.5501 2.58765C15.3573 2.80444 16.1326 3.12592 16.8564 3.5439L17.222 6.10327Z" stroke="#2C2D35" stroke-width="2" stroke-linecap="round" stroke-linejoin="round"/>
</svg>
