<svg width="74" height="14" viewBox="0 0 74 14" fill="none" xmlns="http://www.w3.org/2000/svg">
<mask id="path-1-outside-1_509_2502" maskUnits="userSpaceOnUse" x="0" y="-0.75" width="74" height="15" fill="black">
<rect fill="white" y="-0.75" width="74" height="15"/>
<path d="M11.0653 0.25H1V1.28918H10.275L1 12.2719V13.25H11.0653V12.2516H2.72607L11.0653 1.59483V0.25Z"/>
<path d="M24.2737 4.01959C22.4852 4.01959 21.4038 5.09953 20.8007 6.30172C20.2184 4.97727 19.1162 4.01959 17.3902 4.01959C16.0592 4.01959 15.1234 4.6105 14.4995 5.40517V3.81583H13.2102V13.25H14.4995C14.4995 13.25 14.4787 10.5196 14.4787 8.99138C14.4787 8.8895 14.4787 8.80799 14.4995 8.68574C14.5619 7.13715 15.1234 4.65125 17.3486 4.65125C19.4074 4.65125 20.0729 6.75 20.1976 8.38009C20.2392 8.62461 20.2392 8.86912 20.2392 9.09326C20.2392 10.7437 20.2392 13.25 20.2392 13.25H21.3622C21.3622 13.25 21.3414 10.5196 21.3414 8.99138C21.3414 7.46317 21.8613 4.65125 24.2321 4.65125C26.582 4.65125 27.1227 7.44279 27.1227 9.09326C27.1227 10.7437 27.1019 13.25 27.1019 13.25H28.2041C28.2041 13.25 28.2041 10.6826 28.2041 8.8895C28.2041 6.52586 27.0187 4.01959 24.2737 4.01959Z"/>
<path d="M38.5841 3.81583V5.58856C38.2513 5.22179 37.877 4.91614 37.4403 4.67163C37.4403 4.65125 37.4195 4.63088 37.3987 4.63088H37.3779C36.6916 4.24373 35.9014 4.01959 35.0487 4.01959C32.47 4.01959 30.3696 6.07759 30.3696 8.60423C30.3696 10.1528 31.1391 11.518 32.3245 12.3331C32.4077 12.3942 32.4908 12.4553 32.574 12.5165C32.6572 12.5572 32.7196 12.598 32.782 12.6387C32.886 12.6795 32.9899 12.7406 33.0731 12.7813C33.6762 13.0462 34.3417 13.2092 35.0487 13.2092C36.4629 13.2092 37.7106 12.598 38.5841 11.6403V13.25H39.8318V3.81583H38.5841ZM37.8562 10.1528C37.3155 11.0901 36.5045 11.8237 35.5894 12.1701C34.7992 12.4757 33.9674 12.4961 33.3019 12.2312C33.1979 12.1904 33.1147 12.1293 33.0107 12.0682C32.9899 12.0682 32.9691 12.0478 32.9483 12.0478C31.4926 11.1513 31.2015 8.95063 32.3245 7.05564C32.8652 6.11834 33.6762 5.40517 34.5912 5.0384C35.0072 4.87539 35.4231 4.81426 35.8182 4.81426C36.1509 4.81426 36.5669 4.87539 36.8788 4.99765L37.1076 5.09953C37.1283 5.11991 37.1491 5.14028 37.1699 5.14028C37.1907 5.16066 37.2115 5.16066 37.2323 5.18103C38.688 6.07759 38.9792 8.27821 37.8562 10.1528Z"/>
<path d="M43.8827 13.25C43.8827 13.25 43.8827 11.681 43.8827 9.07288C43.8827 6.46473 44.9641 4.65125 46.9813 4.65125C48.9985 4.65125 50.1007 6.6685 50.1007 8.90987C50.1007 11.1716 50.1007 13.25 50.1007 13.25H51.3484C51.3484 13.25 51.2652 10.4788 51.2652 8.17633C51.2652 5.85345 48.9569 4.01959 47.0229 4.01959C45.0888 4.01959 43.9243 5.42555 43.9243 5.42555V3.83621H42.6349V13.25H43.8827Z"/>
<path d="M55.1842 13.25V3.83621H53.8948V13.25H55.1842ZM54.5395 2.14498C54.997 2.14498 55.3713 1.77821 55.3713 1.32994C55.3713 0.902038 54.997 0.535266 54.5395 0.535266C54.082 0.535266 53.7284 0.902038 53.7284 1.32994C53.7284 1.77821 54.082 2.14498 54.5395 2.14498Z"/>
<path d="M69.0696 4.01959C67.2811 4.01959 66.1997 5.09953 65.5966 6.30172C65.0143 4.97727 63.9121 4.01959 62.1861 4.01959C60.8551 4.01959 59.9193 4.6105 59.2954 5.40517V3.81583H58.0061V13.25H59.2954C59.2954 13.25 59.2746 10.5196 59.2746 8.99138C59.2746 8.8895 59.2746 8.80799 59.2954 8.68574C59.3578 7.13715 59.9193 4.65125 62.1445 4.65125C64.2033 4.65125 64.8688 6.75 64.9935 8.38009C65.0351 8.62461 65.0351 8.86912 65.0351 9.09326C65.0351 10.7437 65.0351 13.25 65.0351 13.25H66.1581C66.1581 13.25 66.1373 10.5196 66.1373 8.99138C66.1373 7.46317 66.6572 4.65125 69.028 4.65125C71.3779 4.65125 71.9186 7.44279 71.9186 9.09326C71.9186 10.7437 71.8978 13.25 71.8978 13.25H73C73 13.25 73 10.6826 73 8.8895C73 6.52586 71.8146 4.01959 69.0696 4.01959Z"/>
</mask>
<path d="M11.0653 0.25H1V1.28918H10.275L1 12.2719V13.25H11.0653V12.2516H2.72607L11.0653 1.59483V0.25Z" fill="#0038B8"/>
<path d="M24.2737 4.01959C22.4852 4.01959 21.4038 5.09953 20.8007 6.30172C20.2184 4.97727 19.1162 4.01959 17.3902 4.01959C16.0592 4.01959 15.1234 4.6105 14.4995 5.40517V3.81583H13.2102V13.25H14.4995C14.4995 13.25 14.4787 10.5196 14.4787 8.99138C14.4787 8.8895 14.4787 8.80799 14.4995 8.68574C14.5619 7.13715 15.1234 4.65125 17.3486 4.65125C19.4074 4.65125 20.0729 6.75 20.1976 8.38009C20.2392 8.62461 20.2392 8.86912 20.2392 9.09326C20.2392 10.7437 20.2392 13.25 20.2392 13.25H21.3622C21.3622 13.25 21.3414 10.5196 21.3414 8.99138C21.3414 7.46317 21.8613 4.65125 24.2321 4.65125C26.582 4.65125 27.1227 7.44279 27.1227 9.09326C27.1227 10.7437 27.1019 13.25 27.1019 13.25H28.2041C28.2041 13.25 28.2041 10.6826 28.2041 8.8895C28.2041 6.52586 27.0187 4.01959 24.2737 4.01959Z" fill="#0038B8"/>
<path d="M38.5841 3.81583V5.58856C38.2513 5.22179 37.877 4.91614 37.4403 4.67163C37.4403 4.65125 37.4195 4.63088 37.3987 4.63088H37.3779C36.6916 4.24373 35.9014 4.01959 35.0487 4.01959C32.47 4.01959 30.3696 6.07759 30.3696 8.60423C30.3696 10.1528 31.1391 11.518 32.3245 12.3331C32.4077 12.3942 32.4908 12.4553 32.574 12.5165C32.6572 12.5572 32.7196 12.598 32.782 12.6387C32.886 12.6795 32.9899 12.7406 33.0731 12.7813C33.6762 13.0462 34.3417 13.2092 35.0487 13.2092C36.4629 13.2092 37.7106 12.598 38.5841 11.6403V13.25H39.8318V3.81583H38.5841ZM37.8562 10.1528C37.3155 11.0901 36.5045 11.8237 35.5894 12.1701C34.7992 12.4757 33.9674 12.4961 33.3019 12.2312C33.1979 12.1904 33.1147 12.1293 33.0107 12.0682C32.9899 12.0682 32.9691 12.0478 32.9483 12.0478C31.4926 11.1513 31.2015 8.95063 32.3245 7.05564C32.8652 6.11834 33.6762 5.40517 34.5912 5.0384C35.0072 4.87539 35.4231 4.81426 35.8182 4.81426C36.1509 4.81426 36.5669 4.87539 36.8788 4.99765L37.1076 5.09953C37.1283 5.11991 37.1491 5.14028 37.1699 5.14028C37.1907 5.16066 37.2115 5.16066 37.2323 5.18103C38.688 6.07759 38.9792 8.27821 37.8562 10.1528Z" fill="#0038B8"/>
<path d="M43.8827 13.25C43.8827 13.25 43.8827 11.681 43.8827 9.07288C43.8827 6.46473 44.9641 4.65125 46.9813 4.65125C48.9985 4.65125 50.1007 6.6685 50.1007 8.90987C50.1007 11.1716 50.1007 13.25 50.1007 13.25H51.3484C51.3484 13.25 51.2652 10.4788 51.2652 8.17633C51.2652 5.85345 48.9569 4.01959 47.0229 4.01959C45.0888 4.01959 43.9243 5.42555 43.9243 5.42555V3.83621H42.6349V13.25H43.8827Z" fill="#0038B8"/>
<path d="M55.1842 13.25V3.83621H53.8948V13.25H55.1842ZM54.5395 2.14498C54.997 2.14498 55.3713 1.77821 55.3713 1.32994C55.3713 0.902038 54.997 0.535266 54.5395 0.535266C54.082 0.535266 53.7284 0.902038 53.7284 1.32994C53.7284 1.77821 54.082 2.14498 54.5395 2.14498Z" fill="#0038B8"/>
<path d="M69.0696 4.01959C67.2811 4.01959 66.1997 5.09953 65.5966 6.30172C65.0143 4.97727 63.9121 4.01959 62.1861 4.01959C60.8551 4.01959 59.9193 4.6105 59.2954 5.40517V3.81583H58.0061V13.25H59.2954C59.2954 13.25 59.2746 10.5196 59.2746 8.99138C59.2746 8.8895 59.2746 8.80799 59.2954 8.68574C59.3578 7.13715 59.9193 4.65125 62.1445 4.65125C64.2033 4.65125 64.8688 6.75 64.9935 8.38009C65.0351 8.62461 65.0351 8.86912 65.0351 9.09326C65.0351 10.7437 65.0351 13.25 65.0351 13.25H66.1581C66.1581 13.25 66.1373 10.5196 66.1373 8.99138C66.1373 7.46317 66.6572 4.65125 69.028 4.65125C71.3779 4.65125 71.9186 7.44279 71.9186 9.09326C71.9186 10.7437 71.8978 13.25 71.8978 13.25H73C73 13.25 73 10.6826 73 8.8895C73 6.52586 71.8146 4.01959 69.0696 4.01959Z" fill="#0038B8"/>
<path d="M11.0653 0.25H1V1.28918H10.275L1 12.2719V13.25H11.0653V12.2516H2.72607L11.0653 1.59483V0.25Z" stroke="#0038B8" stroke-width="0.4" mask="url(#path-1-outside-1_509_2502)"/>
<path d="M24.2737 4.01959C22.4852 4.01959 21.4038 5.09953 20.8007 6.30172C20.2184 4.97727 19.1162 4.01959 17.3902 4.01959C16.0592 4.01959 15.1234 4.6105 14.4995 5.40517V3.81583H13.2102V13.25H14.4995C14.4995 13.25 14.4787 10.5196 14.4787 8.99138C14.4787 8.8895 14.4787 8.80799 14.4995 8.68574C14.5619 7.13715 15.1234 4.65125 17.3486 4.65125C19.4074 4.65125 20.0729 6.75 20.1976 8.38009C20.2392 8.62461 20.2392 8.86912 20.2392 9.09326C20.2392 10.7437 20.2392 13.25 20.2392 13.25H21.3622C21.3622 13.25 21.3414 10.5196 21.3414 8.99138C21.3414 7.46317 21.8613 4.65125 24.2321 4.65125C26.582 4.65125 27.1227 7.44279 27.1227 9.09326C27.1227 10.7437 27.1019 13.25 27.1019 13.25H28.2041C28.2041 13.25 28.2041 10.6826 28.2041 8.8895C28.2041 6.52586 27.0187 4.01959 24.2737 4.01959Z" stroke="#0038B8" stroke-width="0.4" mask="url(#path-1-outside-1_509_2502)"/>
<path d="M38.5841 3.81583V5.58856C38.2513 5.22179 37.877 4.91614 37.4403 4.67163C37.4403 4.65125 37.4195 4.63088 37.3987 4.63088H37.3779C36.6916 4.24373 35.9014 4.01959 35.0487 4.01959C32.47 4.01959 30.3696 6.07759 30.3696 8.60423C30.3696 10.1528 31.1391 11.518 32.3245 12.3331C32.4077 12.3942 32.4908 12.4553 32.574 12.5165C32.6572 12.5572 32.7196 12.598 32.782 12.6387C32.886 12.6795 32.9899 12.7406 33.0731 12.7813C33.6762 13.0462 34.3417 13.2092 35.0487 13.2092C36.4629 13.2092 37.7106 12.598 38.5841 11.6403V13.25H39.8318V3.81583H38.5841ZM37.8562 10.1528C37.3155 11.0901 36.5045 11.8237 35.5894 12.1701C34.7992 12.4757 33.9674 12.4961 33.3019 12.2312C33.1979 12.1904 33.1147 12.1293 33.0107 12.0682C32.9899 12.0682 32.9691 12.0478 32.9483 12.0478C31.4926 11.1513 31.2015 8.95063 32.3245 7.05564C32.8652 6.11834 33.6762 5.40517 34.5912 5.0384C35.0072 4.87539 35.4231 4.81426 35.8182 4.81426C36.1509 4.81426 36.5669 4.87539 36.8788 4.99765L37.1076 5.09953C37.1283 5.11991 37.1491 5.14028 37.1699 5.14028C37.1907 5.16066 37.2115 5.16066 37.2323 5.18103C38.688 6.07759 38.9792 8.27821 37.8562 10.1528Z" stroke="#0038B8" stroke-width="0.4" mask="url(#path-1-outside-1_509_2502)"/>
<path d="M43.8827 13.25C43.8827 13.25 43.8827 11.681 43.8827 9.07288C43.8827 6.46473 44.9641 4.65125 46.9813 4.65125C48.9985 4.65125 50.1007 6.6685 50.1007 8.90987C50.1007 11.1716 50.1007 13.25 50.1007 13.25H51.3484C51.3484 13.25 51.2652 10.4788 51.2652 8.17633C51.2652 5.85345 48.9569 4.01959 47.0229 4.01959C45.0888 4.01959 43.9243 5.42555 43.9243 5.42555V3.83621H42.6349V13.25H43.8827Z" stroke="#0038B8" stroke-width="0.4" mask="url(#path-1-outside-1_509_2502)"/>
<path d="M55.1842 13.25V3.83621H53.8948V13.25H55.1842ZM54.5395 2.14498C54.997 2.14498 55.3713 1.77821 55.3713 1.32994C55.3713 0.902038 54.997 0.535266 54.5395 0.535266C54.082 0.535266 53.7284 0.902038 53.7284 1.32994C53.7284 1.77821 54.082 2.14498 54.5395 2.14498Z" stroke="#0038B8" stroke-width="0.4" mask="url(#path-1-outside-1_509_2502)"/>
<path d="M69.0696 4.01959C67.2811 4.01959 66.1997 5.09953 65.5966 6.30172C65.0143 4.97727 63.9121 4.01959 62.1861 4.01959C60.8551 4.01959 59.9193 4.6105 59.2954 5.40517V3.81583H58.0061V13.25H59.2954C59.2954 13.25 59.2746 10.5196 59.2746 8.99138C59.2746 8.8895 59.2746 8.80799 59.2954 8.68574C59.3578 7.13715 59.9193 4.65125 62.1445 4.65125C64.2033 4.65125 64.8688 6.75 64.9935 8.38009C65.0351 8.62461 65.0351 8.86912 65.0351 9.09326C65.0351 10.7437 65.0351 13.25 65.0351 13.25H66.1581C66.1581 13.25 66.1373 10.5196 66.1373 8.99138C66.1373 7.46317 66.6572 4.65125 69.028 4.65125C71.3779 4.65125 71.9186 7.44279 71.9186 9.09326C71.9186 10.7437 71.8978 13.25 71.8978 13.25H73C73 13.25 73 10.6826 73 8.8895C73 6.52586 71.8146 4.01959 69.0696 4.01959Z" stroke="#0038B8" stroke-width="0.4" mask="url(#path-1-outside-1_509_2502)"/>
</svg>
